<?xml version="1.0" encoding="utf-8"?>
<!-- Generator: Adobe Illustrator 24.0.2, SVG Export Plug-In . SVG Version: 6.00 Build 0)  -->
<svg version="1.1" id="Layer_1" xmlns="http://www.w3.org/2000/svg" xmlns:xlink="http://www.w3.org/1999/xlink" x="0px" y="0px"
	 viewBox="0 0 1080 1080" style="enable-background:new 0 0 1080 1080;" xml:space="preserve">
<style type="text/css">
	.st0{fill:#53585E;}
	.st1{fill:#FFCE04;}
</style>
<g id="XMLID_214_">
	<g id="XMLID_211_">
		<path id="XMLID_251_" class="st0" d="M582.9,410.93c-3.56,0-7.17-0.55-10.73-1.72c-8.79-2.87-15.93-8.99-20.12-17.25
			c-4.18-8.25-4.9-17.63-2.03-26.42c5.92-18.15,25.5-28.08,43.66-22.14c18.14,5.93,28.08,25.52,22.14,43.66l0,0
			C611.06,401.65,597.47,410.93,582.9,410.93z M582.9,354.69c-3.35,0-6.68,0.79-9.75,2.35c-5.15,2.61-8.97,7.07-10.76,12.56
			c-1.79,5.48-1.34,11.34,1.27,16.48c2.62,5.15,7.07,8.97,12.56,10.76c11.3,3.68,23.54-2.5,27.25-13.82l0,0
			c1.79-5.48,1.34-11.34-1.27-16.48c-2.61-5.15-7.07-8.97-12.56-10.76C587.43,355.05,585.16,354.69,582.9,354.69z"/>
	</g>
	<path id="XMLID_207_" class="st1" d="M597.27,381c-2.59,7.92-11.11,12.25-19.04,9.66c-7.92-2.59-12.25-11.11-9.66-19.04
		c2.59-7.92,11.11-12.25,19.04-9.66C595.54,364.55,599.86,373.07,597.27,381z"/>
	<g id="XMLID_212_">
		<path id="XMLID_248_" class="st0" d="M595.5,303.13c-0.67,0-1.35-0.11-2.02-0.33l-36.47-11.92c-3.41-1.11-5.28-4.79-4.16-8.21
			l10.05-30.74c2.14-6.56,9.21-10.16,15.81-8.03l25.01,8.18c3.18,1.04,5.77,3.25,7.28,6.24c1.52,2.99,1.77,6.39,0.73,9.57
			l-10.05,30.74C600.79,301.38,598.24,303.13,595.5,303.13z M567.25,280.53l24.09,7.88l7.88-24.1l-24.1-7.88L567.25,280.53z"/>
	</g>
	<g id="XMLID_213_">
		<path id="XMLID_245_" class="st0" d="M523.15,550.15c-1.46,0-2.94-0.23-4.4-0.71l-47.13-15.4c-7.44-2.43-11.52-10.47-9.09-17.91
			l3.67-11.23c1.2-3.67,5.17-5.69,8.84-4.48l60.81,19.88c3.68,1.2,5.69,5.16,4.49,8.84l-3.67,11.22
			C534.71,546.34,529.13,550.15,523.15,550.15z M477.34,515.91l-1.49,4.57l47.25,15.64c0.02,0,0.03,0.01,0.05,0.01
			c0.08,0,0.17-0.06,0.2-0.13l1.49-4.56L477.34,515.91z"/>
	</g>
	<g id="XMLID_215_">
		<path id="XMLID_242_" class="st0" d="M516.13,608.46c-0.94,0-1.89-0.13-2.82-0.4l-168.64-47.64c-2.65-0.75-4.85-2.48-6.19-4.88
			c-1.34-2.41-1.67-5.19-0.92-7.83l1.91-6.76c0.74-2.64,2.47-4.84,4.88-6.18c2.4-1.34,5.18-1.68,7.84-0.92l168.64,47.64
			c2.64,0.74,4.84,2.47,6.19,4.88c1.35,2.4,1.68,5.19,0.92,7.84l-1.9,6.75c-0.75,2.65-2.49,4.85-4.89,6.19
			C519.59,608.02,517.87,608.46,516.13,608.46z M349.46,543.48l-2.27,6.97l168.85,47.99c0,0,0,0,0,0c0.1,0.02,0.32-0.07,0.36-0.21
			l1.9-6.75L349.46,543.48z"/>
	</g>
	<g id="XMLID_217_">
		<path id="XMLID_239_" class="st0" d="M662.28,795.31h-96c-3.87,0-7.01-3.14-7.01-7.01v-88.52c0-30.33,24.68-55.01,55.01-55.01
			c30.33,0,55.01,24.68,55.01,55.01v88.52C669.29,792.18,666.16,795.31,662.28,795.31z M573.29,781.29h81.98v-81.51
			c0-22.6-18.39-40.99-40.99-40.99s-40.99,18.38-40.99,40.99V781.29z"/>
	</g>
	<g id="XMLID_223_">
		<path id="XMLID_235_" class="st0" d="M533.67,533.97c-0.73,0-1.47-0.12-2.18-0.35l-60.81-19.89c-3.68-1.2-5.69-5.16-4.48-8.84
			l55.09-168.5c1.2-3.68,5.15-5.68,8.84-4.49c3.68,1.2,5.69,5.16,4.49,8.84L481.7,502.59l47.49,15.53l36.38-111.27
			c-5.96-3.37-10.79-8.41-13.96-14.65c-4.24-8.37-4.98-17.89-2.06-26.8c5.27-16.12,21.2-25.8,37.42-23.98l10.34-31.62
			c0.41-1.26,0.31-2.6-0.29-3.78c-0.6-1.18-1.62-2.06-2.88-2.47l-38.07-12.45c-2.59-0.85-5.41,0.58-6.25,3.17l-4.44,13.58
			c-1.2,3.68-5.14,5.69-8.84,4.48c-3.68-1.2-5.69-5.16-4.48-8.84l4.44-13.58c3.26-9.94,14-15.38,23.93-12.14l38.07,12.45
			c9.94,3.25,15.39,13.99,12.14,23.93l-12.3,37.62c-1.2,3.67-5.14,5.68-8.84,4.48c-5.36-1.76-11.08-1.32-16.11,1.24
			c-5.03,2.55-8.76,6.9-10.51,12.26c-1.76,5.36-1.32,11.08,1.24,16.11c2.55,5.03,6.9,8.76,12.26,10.51
			c1.77,0.58,3.24,1.83,4.08,3.49c0.84,1.66,0.99,3.58,0.41,5.35l-40.52,123.93c-0.58,1.77-1.83,3.24-3.5,4.08
			C535.85,533.71,534.76,533.97,533.67,533.97z"/>
	</g>
	<g id="XMLID_222_">
		<path id="XMLID_229_" class="st0" d="M660.33,692.82c-0.75,0-1.5-0.13-2.22-0.39c-1.95-0.7-3.44-2.3-4.03-4.29
			c-2.09-7.13-6.1-13.61-11.61-18.73c-1.48-1.37-2.23-3.34-2.05-5.35c0.18-2,1.28-3.81,2.98-4.9c41.39-26.44,66.1-71.41,66.1-120.3
			c0-64.95-43.94-121.7-106.85-138c-2.17-0.57-3.9-2.21-4.58-4.35c-0.67-2.14-0.2-4.48,1.27-6.18c1.86-2.17,3.24-4.62,4.12-7.3
			c0.27-0.85,0.4-1.7,0.55-2.54c0.31-1.81,1.41-3.63,2.96-4.61c1.54-0.98,3.48-1.5,5.24-1.02
			c76.62,20.83,130.13,90.81,130.13,170.17c0,58.96-29.3,113.8-78.38,146.69C662.87,692.44,661.61,692.82,660.33,692.82z
			 M656.84,665.8c2.57,3.21,4.77,6.7,6.55,10.39c41.43-30.84,65.93-79.28,65.93-131.16c0-71.33-46.67-134.47-114.28-155.78
			c-0.2,0.5-0.41,0.99-0.63,1.47c64.08,20.52,108.11,80.22,108.11,148.15C722.52,589.63,698.11,636.52,656.84,665.8z M610.5,381.13
			l6.41,1.13L610.5,381.13z"/>
	</g>
	<path id="XMLID_219_" class="st1" d="M636.85,702.36c0,12.46-10.1,22.56-22.56,22.56c-12.46,0-22.56-10.1-22.56-22.56
		s10.1-22.56,22.56-22.56C626.74,679.8,636.85,689.9,636.85,702.36z"/>
	<g id="XMLID_221_">
		<path id="XMLID_226_" class="st0" d="M565.84,721.51c-61.53,0-117.64-31.47-150.1-84.17c-1.33-2.16-1.28-4.9,0.12-7.01
			c1.4-2.11,3.89-3.21,6.41-2.84c3.26,0.5,5.29,0.45,8.28-0.06c4.49-0.81,8.51-2.65,11.82-5.38c1.38-1.13,3.19-1.66,4.94-1.43
			c1.77,0.23,3.38,1.16,4.43,2.61c26.84,36.55,69.8,58.38,114.92,58.4c0.17-0.01,0.94-0.05,1.02-0.05c1.96-0.16,3.94,0.88,5.19,2.47
			c1.25,1.58,1.7,3.66,1.21,5.62c-0.86,3.45-1.3,6.85-1.3,10.12v15.19c0,3.51-2.78,6.39-6.29,6.5
			C566.43,721.49,565.92,721.51,565.84,721.51z M433.25,640.18c29.55,41.35,75.78,66.35,126.53,68.2v-8.6c0-1.74,0.09-3.5,0.27-5.28
			c-44.73-1.95-86.91-23.44-114.98-58.59C441.41,637.96,437.41,639.42,433.25,640.18z"/>
	</g>
	<g id="XMLID_220_">
		<path id="XMLID_216_" class="st0" d="M426.22,640.86c-21.24,0-38.52-17.28-38.52-38.52c0-12.79,6.34-24.73,16.94-31.91
			c1.59-1.08,3.58-1.4,5.42-0.88l25.77,7.28l0,0l21.23,6c1.84,0.52,3.36,1.82,4.15,3.56c2.34,5.13,3.53,10.5,3.53,15.95
			C464.74,623.58,447.46,640.86,426.22,640.86z M409.64,582.96c-5.64,4.82-8.93,11.88-8.93,19.38c0,14.06,11.44,25.51,25.51,25.51
			c14.06,0,25.51-11.44,25.51-25.51c0-2.65-0.44-5.28-1.3-7.86L409.64,582.96z"/>
	</g>
	<path id="XMLID_305_" class="st0" d="M706.88,781.29H482.86c-3.87,0-7.01,3.14-7.01,7.01l0,0c0,3.87,3.14,7.01,7.01,7.01h224.02
		c12.21,0,22.12,10.03,21.94,22.28c-0.04,2.87-2.57,5.09-5.44,5.09H399.06c-2.87,0-5.39-2.22-5.43-5.09
		c-0.19-12.26,9.72-22.29,21.94-22.29h20.42c3.87,0,7.01-3.14,7.01-7.01l0,0c0-3.87-3.14-7.01-7.01-7.01h-20.42
		c-19.98,0-36.21,16.38-35.96,36.42c0.13,10.56,8.9,18.99,19.45,18.99h324.32c10.56,0,19.32-8.44,19.46-19
		C743.09,797.68,726.86,781.29,706.88,781.29z"/>
</g>
</svg>
