<?xml version="1.0" encoding="utf-8"?>
<!-- Generator: Adobe Illustrator 24.0.2, SVG Export Plug-In . SVG Version: 6.00 Build 0)  -->
<svg version="1.1" id="Layer_1" xmlns="http://www.w3.org/2000/svg" xmlns:xlink="http://www.w3.org/1999/xlink" x="0px" y="0px"
	 viewBox="0 0 1080 1080" style="enable-background:new 0 0 1080 1080;" xml:space="preserve">
<style type="text/css">
	.st0{fill:#FFCE04;}
	.st1{fill:#FFFFFF;}
	.st2{fill:#53585E;}
</style>
<g id="XMLID_90_">
	<path id="XMLID_29_" class="st0" d="M369.38,643.71c0.19,57.83,37.17,110.97,94.68,136.76l152.78-0.5
		c57.34-26.16,93.97-79.55,93.78-137.38c-0.09-27.07-8.09-52.72-22.17-75.09l-297.4,0.97C377.13,590.93,369.29,616.64,369.38,643.71
		z"/>
	<circle id="XMLID_21_" class="st1" cx="650.07" cy="607.51" r="16.6"/>
	<path id="XMLID_32_" class="st0" d="M539.48,484.65c0.02,7.2-5.79,13.05-12.99,13.08c-7.2,0.02-13.05-5.79-13.08-12.99
		c-0.02-7.2,5.79-13.05,12.99-13.08C533.6,471.64,539.46,477.46,539.48,484.65z"/>
	<circle id="XMLID_34_" class="st0" cx="568.09" cy="526.07" r="28.47"/>
	
		<ellipse id="XMLID_31_" transform="matrix(0.2266 -0.974 0.974 0.2266 -165.0123 1110.1611)" class="st1" cx="616.52" cy="658.98" rx="33.72" ry="33.72"/>
	<g id="XMLID_8_">
		<path id="XMLID_129_" class="st2" d="M622.7,820.24l-164.24,0.54c-1.68,0.01-3.33-0.32-4.88-0.96
			c-75.37-31.13-124.24-100.21-124.48-175.98c-0.18-55.74,25.81-108.89,71.32-145.83c5.44-4.4,13.42-3.58,17.82,1.85
			c4.41,5.43,3.58,13.41-1.85,17.82c-39.53,32.08-62.11,78.03-61.95,126.07c0.21,64.74,41.94,124.02,106.53,151.68l159.08-0.52
			c64.4-28.08,105.75-87.63,105.53-152.37c-0.24-73.36-52.15-137.61-129.16-159.87c-5.41-1.56-9.13-6.5-9.15-12.13l-0.34-102.88
			c-0.02-6.99,5.63-12.68,12.62-12.71l12.01-0.04c3.64-0.01,6.59-2.99,6.58-6.63c-0.01-3.64-2.99-6.59-6.63-6.58l-145.01,0.47
			c-3.64,0.01-6.59,2.99-6.58,6.63c0.01,3.64,2.99,6.6,6.63,6.59l12.01-0.04c6.99-0.02,12.68,5.63,12.71,12.62l0.34,102.88
			c0.02,5.63-3.68,10.59-9.08,12.19c-8.19,2.42-16.28,5.41-24.08,8.88c-6.36,2.84-13.87-0.02-16.73-6.42
			c-2.84-6.39,0.03-13.88,6.42-16.73c5.9-2.63,11.96-5.01,18.1-7.12l-0.26-80.94c-17.32-0.29-31.33-14.44-31.39-31.83
			c-0.06-17.61,14.22-31.98,31.83-32.04l145.01-0.47c17.61-0.06,31.98,14.22,32.04,31.83c0.06,17.39-13.87,31.63-31.18,32.04
			l0.26,80.94c82.88,27.76,138.07,99.52,138.34,181.28c0.25,75.76-48.16,145.16-123.33,176.79
			C626.03,819.9,624.38,820.23,622.7,820.24z"/>
	</g>
	<g id="XMLID_13_">
		<path id="XMLID_126_" class="st2" d="M586.41,341.79l-94.79,0.31c-6.99,0.02-12.68-5.63-12.71-12.62l-0.19-57.23
			c-0.02-6.99,5.63-12.68,12.62-12.71l94.79-0.31c6.99-0.02,12.68,5.63,12.71,12.62l0.19,57.23
			C599.06,336.08,593.41,341.77,586.41,341.79z M504.2,316.73l69.46-0.23l-0.1-31.9l-69.46,0.23L504.2,316.73z"/>
	</g>
</g>
</svg>
