<svg xmlns="http://www.w3.org/2000/svg" xmlns:xlink="http://www.w3.org/1999/xlink" id="Layer_1" x="0" y="0" version="1.1" viewBox="0 0 1080 1080" xml:space="preserve" style="enable-background:new 0 0 1080 1080"><style type="text/css">.st0{fill:#ffce04;stroke:#53585e;stroke-miterlimit:10}.st1{font-family:&apos;ForteMT&apos;}.st2{font-size:209.4692px}.st3{fill:#53585e}</style><g><text class="st0 st1 st2" transform="matrix(1 0 0 1 557.2395 625.3901)">A</text><g id="XMLID_183_"><g><path id="XMLID_27_" d="M488.43,643.56H364.44c-5.01,0-9.07-4.06-9.07-9.07V493.78c0-5.01,4.06-9.07,9.07-9.07 h123.98c5.01,0,9.07,4.06,9.07,9.07v140.71C497.5,639.49,493.44,643.56,488.43,643.56z M373.51,625.41h105.84V502.85H373.51 V625.41z" class="st3"/></g></g><g id="XMLID_187_"><g><path id="XMLID_24_" d="M582.66,454.12h-85.33c-23.9,0-43.35-19.44-43.35-43.35v-51.3c0-5.01,4.06-9.07,9.07-9.07 h153.89c5.01,0,9.07,4.06,9.07,9.07v51.3C626.01,434.68,606.57,454.12,582.66,454.12z M472.13,368.54v42.23 c0,13.9,11.31,25.21,25.21,25.21h85.33c13.9,0,25.21-11.31,25.21-25.21v-42.23H472.13z" class="st3"/></g></g><path id="XMLID_236_" d="M752.33,398.67h-13.54c-5.01,0-9.07,4.06-9.07,9.07l0,0c0,5.01,4.06,9.07,9.07,9.07h13.54 c10.96,0,19.85,8.89,19.85,19.85V691.6c0,10.96-8.89,19.85-19.85,19.85H327.67c-10.96,0-19.85-8.89-19.85-19.85V436.65 c0-10.96,8.89-19.85,19.85-19.85H454.4c2.94,21.06,21.08,37.31,42.93,37.31h85.33c21.86,0,39.99-16.25,42.93-37.31h71.73 c5.01,0,9.07-4.06,9.07-9.07l0,0c0-5.01-4.06-9.07-9.07-9.07h-80.38c-5.01,0-9.07,4.06-9.07,9.07v3.03 c0,13.92-11.29,25.21-25.21,25.21h-85.33c-13.92,0-25.21-11.29-25.21-25.21v-3.03c0-5.01-4.06-9.07-9.07-9.07H327.67 c-20.98,0-37.99,17.01-37.99,37.99V691.6c0,20.98,17.01,37.99,37.99,37.99h424.66c20.98,0,37.99-17.01,37.99-37.99V436.65 C790.32,415.67,773.31,398.67,752.33,398.67z" class="st3"/></g></svg>