<?xml version="1.0" encoding="utf-8"?>
<!-- Generator: Adobe Illustrator 24.0.2, SVG Export Plug-In . SVG Version: 6.00 Build 0)  -->
<svg version="1.1" id="Layer_1" xmlns="http://www.w3.org/2000/svg" xmlns:xlink="http://www.w3.org/1999/xlink" x="0px" y="0px"
	 viewBox="0 0 1080 1080" style="enable-background:new 0 0 1080 1080;" xml:space="preserve">
<style type="text/css">
	.st0{fill:#FFCE04;stroke:#53585E;stroke-width:3;stroke-miterlimit:10;}
</style>
<g>
	<path class="st0" d="M601.74,673.27c0,31.59-25.61,57.19-57.19,57.19c-31.6,0-57.21-25.61-57.21-57.19
		c0-31.6,25.61-57.2,57.21-57.2C576.13,616.07,601.74,641.67,601.74,673.27z"/>
	<g>
		<path class="st0" d="M633.93,628.82c-17.02-34.14-51.27-55.35-89.38-55.35c-36.35,0-69.87,19.8-87.45,51.66l-44.75-24.7
			c26.58-48.16,77.24-78.07,132.2-78.07c57.62,0,109.4,32.06,135.12,83.66L633.93,628.82z"/>
	</g>
	<g>
		<path class="st0" d="M382.39,574.46l-43.62-26.66c44.19-72.33,121.12-115.51,205.79-115.51c80.17,0,154.87,39.71,199.81,106.22
			L702,567.14c-35.42-52.43-94.27-83.73-157.44-83.73C477.84,483.41,417.21,517.44,382.39,574.46z"/>
	</g>
	<g>
		<path class="st0" d="M318.37,521.01L276,492.42c60.35-89.47,160.75-142.89,268.56-142.89c103.08,0,197.65,47.41,259.45,130.09
			l-40.95,30.61c-52.04-69.64-131.69-109.58-218.51-109.58C453.76,400.65,369.21,445.64,318.37,521.01z"/>
	</g>
</g>
</svg>
