<svg xmlns="http://www.w3.org/2000/svg" xmlns:xlink="http://www.w3.org/1999/xlink" id="Layer_1" x="0" y="0" version="1.1" viewBox="0 0 1080 1080" xml:space="preserve" style="enable-background:new 0 0 1080 1080"><style type="text/css">.st0{fill:#53585e}.st1{fill:#ffce04;stroke:#53585e;stroke-miterlimit:10}.st2{font-family:&apos;ArhialkhanMJ&apos;}.st3{font-size:229.487px}</style><g><g id="XMLID_94_"><g id="XMLID_78_"><path id="XMLID_293_" d="M718.55,669.6H361.45c-22.76,0-41.27-18.52-41.27-41.27V383.21 c0-22.76,18.52-41.27,41.27-41.27h283.42c4.04,0,7.32,3.28,7.32,7.32s-3.28,7.32-7.32,7.32H361.45 c-14.68,0-26.63,11.95-26.63,26.63v245.11c0,14.68,11.95,26.63,26.63,26.63h357.09c14.68,0,26.63-11.95,26.63-26.63V383.21 c0-14.68-11.95-26.63-26.63-26.63h-28.83c-4.04,0-7.32-3.28-7.32-7.32s3.28-7.32,7.32-7.32h28.83 c22.76,0,41.27,18.52,41.27,41.27v245.11C759.82,651.08,741.3,669.6,718.55,669.6z" class="st0"/></g><g id="XMLID_281_"><path id="XMLID_290_" d="M611.65,738.06h-143.3c-8.43,0-15.28-6.85-15.28-15.28v-4.31c0-8.43,6.85-15.28,15.28-15.28 h143.3c8.43,0,15.28,6.85,15.28,15.28v4.31C626.93,731.21,620.07,738.06,611.65,738.06z M468.35,717.84 c-0.35,0-0.64,0.29-0.64,0.64v4.31c0,0.35,0.29,0.64,0.64,0.64h143.3c0.35,0,0.64-0.29,0.64-0.64v-4.31 c0-0.35-0.29-0.64-0.64-0.64H468.35z" class="st0"/></g><g id="XMLID_282_"><path id="XMLID_285_" d="M589.26,713.9h-98.52c-4.04,0-7.32-3.28-7.32-7.32V662.8c0-4.04,3.28-7.32,7.32-7.32h98.52 c4.04,0,7.32,3.28,7.32,7.32v43.78C596.58,710.63,593.3,713.9,589.26,713.9z M498.07,699.26h83.88v-29.14h-83.88V699.26z" class="st0"/></g><g id="XMLID_283_"><path id="XMLID_270_" d="M722.44,603.22H357.56c-4.04,0-7.32-3.28-7.32-7.32V380.91c0-4.04,3.28-7.32,7.32-7.32 h364.89c4.04,0,7.32,3.28,7.32,7.32V595.9C729.77,599.94,726.49,603.22,722.44,603.22z M364.88,588.58h350.25V388.23H364.88 V588.58z" class="st0"/></g><g id="XMLID_287_"><path id="XMLID_264_" d="M718.55,669.6H361.45c-22.76,0-41.27-18.52-41.27-41.27v-6.37c0-4.04,3.28-7.32,7.32-7.32 h425c4.04,0,7.32,3.28,7.32,7.32v6.37C759.82,651.08,741.3,669.6,718.55,669.6z M334.84,629.27 c0.5,14.25,12.25,25.69,26.62,25.69h357.09c14.37,0,26.12-11.44,26.62-25.69H334.84z" class="st0"/></g></g><text class="st1 st2 st3" transform="matrix(1 0 0 1 467.3909 532.4201)">K</text></g></svg>