<svg xmlns="http://www.w3.org/2000/svg" xmlns:xlink="http://www.w3.org/1999/xlink" id="Layer_1" x="0" y="0" version="1.1" viewBox="0 0 1080 1080" xml:space="preserve" style="enable-background:new 0 0 1080 1080"><style type="text/css">.st0{fill:none;stroke:#53585e;stroke-width:3;stroke-miterlimit:10}.st1{fill:#53585e}.st2{fill:#ffce04;stroke:#53585e;stroke-miterlimit:10}</style><g><path d="M705.4,750.65c0,13.49-10.94,24.42-24.42,24.42H399.02c-13.48,0-24.42-10.94-24.42-24.42V329.36 c0-13.49,10.94-24.42,24.42-24.42h281.96c13.49,0,24.42,10.94,24.42,24.42V750.65z" class="st0"/><g><rect width="255.89" height="20.53" x="412.05" y="451.55" class="st1"/><g><rect width="255.89" height="56.86" x="412.05" y="361.51" class="st2"/><g><g><rect width="47.41" height="47.42" x="437.79" y="511.61" class="st2"/><rect width="47.42" height="47.42" x="516.28" y="511.61" class="st2"/><rect width="47.42" height="47.42" x="594.79" y="511.61" class="st2"/></g><g><rect width="47.41" height="47.43" x="437.79" y="591.34" class="st2"/><rect width="47.42" height="47.43" x="516.28" y="591.34" class="st2"/><rect width="47.42" height="47.43" x="594.79" y="591.34" class="st2"/></g><g><rect width="47.42" height="47.41" x="437.78" y="671.08" class="st2"/><rect width="47.42" height="47.41" x="516.28" y="671.08" class="st2"/><rect width="47.42" height="47.41" x="594.79" y="671.08" class="st2"/></g></g></g></g><path d="M674.48,586.68v134.89c0,13.47-10.94,24.41-24.44,24.41h-80.79" class="st0"/></g></svg>