<?xml version="1.0" encoding="utf-8"?>
<!-- Generator: Adobe Illustrator 24.0.2, SVG Export Plug-In . SVG Version: 6.00 Build 0)  -->
<svg version="1.1" id="Layer_1" xmlns="http://www.w3.org/2000/svg" xmlns:xlink="http://www.w3.org/1999/xlink" x="0px" y="0px"
	 viewBox="0 0 1080 1080" style="enable-background:new 0 0 1080 1080;" xml:space="preserve">
<style type="text/css">
	.st0{fill:#53585E;}
	.st1{fill:#FFCE04;}
</style>
<g id="XMLID_20_">
	<g id="XMLID_67_">
		<path id="XMLID_156_" class="st0" d="M534.08,616.17c-37.28,0-67.62-30.33-67.62-67.62c0-37.28,30.33-67.62,67.62-67.62
			c37.28,0,67.62,30.33,67.62,67.62C601.7,585.84,571.36,616.17,534.08,616.17z M534.08,503.11c-25.05,0-45.44,20.38-45.44,45.44
			c0,25.05,20.38,45.44,45.44,45.44c25.05,0,45.44-20.38,45.44-45.44C579.52,523.5,559.13,503.11,534.08,503.11z"/>
	</g>
	<g id="XMLID_76_">
		<path id="XMLID_155_" class="st0" d="M534.08,800.96c-59.86,0-106.75-110.87-106.75-252.42c0-141.54,46.89-252.41,106.75-252.41
			c59.86,0,106.75,110.87,106.75,252.41c0,65.82-10.22,127.88-28.8,174.73c-2.26,5.69-8.69,8.49-14.4,6.22
			c-5.7-2.26-8.48-8.7-6.22-14.4c17.56-44.31,27.24-103.46,27.24-166.56c0-108.89-34.73-230.23-84.57-230.23
			c-49.83,0-84.57,121.34-84.57,230.23c0,108.9,34.73,230.23,84.57,230.23c15.71,0,28.9-13.79,37.19-25.35
			c3.57-4.98,10.5-6.11,15.48-2.55c4.98,3.57,6.12,10.5,2.55,15.48C573.06,789,553.97,800.96,534.08,800.96z"/>
	</g>
	<g id="XMLID_77_">
		<path id="XMLID_154_" class="st0" d="M678.6,704.5c-52.47,0-124.19-21.72-197.16-63.08c-57.27-32.45-106.21-71.95-137.81-111.21
			c-33.79-41.98-44.14-79.67-29.15-106.12c3.02-5.33,9.78-7.19,15.12-4.18c5.33,3.02,7.2,9.79,4.18,15.12
			c-10.05,17.74-0.17,47.36,27.13,81.27c29.89,37.13,76.58,74.71,131.47,105.82c94.73,53.69,217.42,83.31,242,39.95
			c10.05-17.74,0.17-47.36-27.13-81.27c-29.89-37.13-76.58-74.71-131.47-105.82c-80.99-45.9-167.06-69.09-214.18-57.68
			c-5.95,1.45-11.94-2.22-13.39-8.17c-1.44-5.95,2.22-11.95,8.17-13.39c53.03-12.81,143.45,10.7,230.34,59.95
			c57.27,32.45,106.21,71.95,137.81,111.21c33.79,41.98,44.14,79.67,29.15,106.12C741.65,694.23,714.67,704.5,678.6,704.5z"/>
	</g>
	<g id="XMLID_79_">
		<path id="XMLID_95_" class="st0" d="M389.56,704.5c-36.08,0-63.05-10.27-75.08-31.49c-15-26.45-4.65-64.15,29.15-106.12
			c31.6-39.26,80.54-78.76,137.81-111.21c123.14-69.8,242.71-83.66,272.23-31.6c9.3,16.41,8.89,37.6-1.18,61.29
			c-2.39,5.65-8.92,8.28-14.54,5.87c-5.64-2.4-8.27-8.91-5.87-14.54c5.07-11.92,9.57-28.82,2.3-41.67
			c-24.58-43.37-147.26-13.75-242,39.95c-54.89,31.11-101.58,68.69-131.47,105.82c-27.3,33.91-37.18,63.53-27.13,81.27
			c24.59,43.38,147.27,13.74,242-39.95c55.97-31.72,103.2-69.98,132.99-107.74c3.8-4.8,10.78-5.64,15.58-1.84
			c4.81,3.8,5.63,10.77,1.84,15.58c-31.53,39.96-81.06,80.19-139.47,113.29C513.75,682.78,442.03,704.5,389.56,704.5z"/>
	</g>
	<circle id="XMLID_75_" class="st1" cx="744.03" cy="429.56" r="28.19"/>
	
		<ellipse id="XMLID_82_" transform="matrix(0.2306 -0.9731 0.9731 0.2306 -248.5589 839.14)" class="st1" cx="406.34" cy="576.74" rx="28.19" ry="28.19"/>
	<circle id="XMLID_85_" class="st1" cx="534.08" cy="307.23" r="28.19"/>
</g>
</svg>
